<svg width="16" height="17" viewBox="0 0 16 17" fill="none" xmlns="http://www.w3.org/2000/svg">
<path d="M8.00008 8.2097C7.70675 8.2097 7.41341 8.13637 7.14675 7.99637L2.80675 5.65637C2.41341 5.44303 2.16675 5.02303 2.16675 4.55637C2.16675 4.0897 2.41341 3.6697 2.80675 3.45637L7.14675 1.11637C7.68008 0.829701 8.32008 0.829701 8.84675 1.11637L13.1867 3.45637C13.5801 3.6697 13.8267 4.0897 13.8267 4.55637C13.8267 5.02303 13.5801 5.44303 13.1867 5.65637L8.84675 7.99637C8.58675 8.14303 8.29342 8.2097 8.00008 8.2097ZM8.00008 1.89637C7.87341 1.89637 7.74008 1.9297 7.62008 1.99637L3.28675 4.3297C3.17341 4.3897 3.16675 4.51637 3.16675 4.55637C3.16675 4.59637 3.17341 4.72303 3.28675 4.77637L7.62675 7.11637C7.86675 7.24303 8.14008 7.24303 8.38008 7.11637L12.7201 4.77637C12.8267 4.71637 12.8401 4.5897 12.8401 4.55637C12.8401 4.51637 12.8334 4.3897 12.7201 4.33637L8.38008 1.99637C8.26008 1.9297 8.12675 1.89637 8.00008 1.89637Z" fill="#012169"/>
<path d="M6.51992 15.1898C6.33325 15.1898 6.13992 15.1431 5.96658 15.0565L1.92659 13.0431C1.25325 12.7031 0.833252 12.0231 0.833252 11.2698V7.45647C0.833252 7.02314 1.05325 6.62981 1.41992 6.40314C1.79325 6.17647 2.23992 6.15647 2.62659 6.34981L6.66658 8.36314C7.33992 8.70314 7.75992 9.37647 7.75992 10.1365V13.9498C7.75992 14.3831 7.53992 14.7765 7.17325 15.0031C6.97325 15.1298 6.74658 15.1898 6.51992 15.1898ZM2.07325 7.21647C2.01992 7.21647 1.97325 7.23647 1.94659 7.24981C1.90659 7.27647 1.83325 7.33647 1.83325 7.45647V11.2698C1.83325 11.6431 2.03992 11.9831 2.37325 12.1498L6.40658 14.1698C6.51325 14.2231 6.59992 14.1831 6.63992 14.1631C6.67992 14.1365 6.75325 14.0765 6.75325 13.9565V10.1431C6.75325 9.76981 6.54658 9.42981 6.21325 9.26314L2.17992 7.24314C2.13992 7.22314 2.10659 7.21647 2.07325 7.21647Z" fill="#012169"/>
<path d="M9.48023 15.1896C9.25357 15.1896 9.0269 15.1296 8.8269 15.003C8.46023 14.7763 8.24023 14.383 8.24023 13.9496V10.1363C8.24023 9.38297 8.66023 8.70297 9.33357 8.36297L13.3669 6.34297C13.7536 6.14964 14.2069 6.16964 14.5736 6.3963C14.9402 6.62297 15.1602 7.0163 15.1602 7.44964V11.263C15.1602 12.0163 14.7402 12.6963 14.0669 13.0363L10.0336 15.0563C9.86023 15.1496 9.6669 15.1896 9.48023 15.1896ZM13.9269 7.2163C13.8936 7.2163 13.8602 7.22297 13.8202 7.24297L9.7869 9.26297C9.45357 9.42964 9.2469 9.76297 9.2469 10.143V13.9563C9.2469 14.0763 9.32023 14.1363 9.36023 14.163C9.40023 14.1896 9.4869 14.223 9.59357 14.1696L13.6269 12.1496C13.9602 11.983 14.1669 11.643 14.1669 11.2696V7.4563C14.1669 7.3363 14.0936 7.2763 14.0536 7.24964C14.0269 7.2363 13.9802 7.2163 13.9269 7.2163Z" fill="#012169"/>
</svg>
