<svg width="25" height="25" viewBox="0 0 25 25" fill="none" xmlns="http://www.w3.org/2000/svg">
<path d="M24.3903 12.152C23.6622 12.1683 22.9392 12.2771 22.2387 12.476C20.3215 13.0236 18.9466 14.2344 18.0177 15.9766C17.5354 16.9081 17.2237 17.9185 17.0975 18.9598C16.9726 19.8797 16.948 20.8105 17.024 21.7357C17.0824 22.5612 17.2398 23.3768 17.4928 24.1648C19.5706 23.1698 21.3246 21.6074 22.5521 19.658C23.7797 17.7085 24.4308 15.4516 24.4302 13.1478C24.4302 12.8116 24.4169 12.4796 24.3903 12.152ZM21.1781 4.84624C19.9259 3.49377 18.384 2.44219 16.6677 1.77028C14.9515 1.09838 13.1054 0.82357 11.2679 0.966446C9.43036 1.10932 7.64897 1.66618 6.05721 2.5953C4.46544 3.52441 3.10457 4.8017 2.07656 6.33146C1.04854 7.86121 0.380034 9.60378 0.121123 11.4286C-0.137788 13.2534 0.0196109 15.1131 0.581526 16.8685C1.14344 18.6238 2.0953 20.2293 3.36579 21.5645C4.63629 22.8997 6.19247 23.9301 7.91774 24.5785C7.90802 19.286 7.91774 13.002 7.9361 12.7936C8.11387 12.6562 8.31466 12.5516 8.52908 12.4847C8.83255 12.3712 9.1489 12.2957 9.47092 12.26C9.61711 12.2485 9.76395 12.2718 9.89935 12.3282C10.0347 12.3845 10.1548 12.4722 10.2497 12.584C10.4235 12.7852 10.5514 13.0218 10.6245 13.2775C10.7119 13.5626 10.7789 13.8531 10.861 14.1415C11.0662 14.862 11.4788 15.4376 12.1442 15.7865C12.7328 16.0997 13.3506 16.1602 13.9803 15.8837C14.4722 15.68 14.9031 15.3526 15.2311 14.9332C15.4699 14.6388 15.6432 14.2968 15.7395 13.9301C15.8357 13.5634 15.8528 13.1803 15.7895 12.8065C15.7385 12.4775 15.6157 12.1636 15.4298 11.8874C15.311 11.7124 15.1933 11.5363 15.069 11.3646C14.758 10.9256 14.567 10.4129 14.515 9.87732C14.4178 9.07697 14.7105 8.43971 15.2397 7.87914C15.5021 7.59787 15.8118 7.36466 16.1545 7.19004C16.4146 7.05822 16.657 6.8942 16.876 6.70184C17.2247 6.40569 17.6134 6.16025 18.0307 5.97277C19.0386 5.49093 20.0933 5.11346 21.1781 4.84624ZM16.2993 5.86909C16.2993 5.92093 16.2356 5.98358 16.1913 6.01706C15.9752 6.15423 15.7592 6.28276 15.5497 6.41237C14.5668 7.00211 13.8583 7.80353 13.5893 8.94519C13.4954 9.33943 13.5375 9.73582 13.5785 10.1333C13.6457 10.757 13.8739 11.3525 14.2406 11.8615C14.3691 12.0461 14.502 12.2287 14.624 12.4177C14.7525 12.6151 14.833 12.8398 14.8593 13.0738C14.8855 13.3078 14.8568 13.5447 14.7753 13.7657C14.6925 14.0153 14.56 14.2457 14.3857 14.4426C14.2113 14.6396 13.9988 14.7992 13.7611 14.9116C13.535 15.0377 13.2753 15.0906 13.0179 15.0629C12.8312 15.0332 12.6524 14.9662 12.4923 14.8658C12.3321 14.7654 12.1939 14.6336 12.0858 14.4785C11.9163 14.2402 11.7985 13.9691 11.7402 13.6825C11.6473 13.3034 11.5706 12.9167 11.3805 12.57C11.2687 12.3601 11.1405 12.1593 10.9971 11.9695C10.6936 11.5785 10.268 11.3873 9.79495 11.2933C9.69651 11.2801 9.59696 11.2773 9.49792 11.2847C9.01512 11.2955 8.56148 11.4402 8.11108 11.599C8.05599 11.6184 8.00307 11.6314 7.9307 11.6508V5.1681C8.083 5.12598 16.0768 5.11842 16.3047 5.1681C16.3047 5.396 16.3112 5.63255 16.2993 5.86909Z" fill="white"/>
</svg>
