<svg width="16" height="17" viewBox="0 0 16 17" fill="none" xmlns="http://www.w3.org/2000/svg">
<path d="M4.77995 15.2097C3.19328 15.2097 1.89331 14.0564 1.89331 12.6364V11.2764C1.89331 11.003 2.11998 10.7764 2.39331 10.7764C2.66664 10.7764 2.89331 11.003 2.89331 11.2764C2.89331 12.1097 3.69995 12.7364 4.77995 12.7364C5.85995 12.7364 6.66663 12.1097 6.66663 11.2764C6.66663 11.003 6.89329 10.7764 7.16663 10.7764C7.43996 10.7764 7.66663 11.003 7.66663 11.2764V12.6364C7.66663 14.0564 6.37328 15.2097 4.77995 15.2097ZM3.06661 13.2897C3.35994 13.8364 4.01995 14.2097 4.77995 14.2097C5.53995 14.2097 6.19995 13.8297 6.49329 13.2897C6.01995 13.5764 5.43328 13.743 4.77995 13.743C4.12661 13.743 3.53994 13.5764 3.06661 13.2897Z" fill="#FCFCFD"/>
<path d="M4.77995 11.9093C3.68661 11.9093 2.70664 11.4093 2.21997 10.6159C2.00664 10.2693 1.89331 9.8626 1.89331 9.44926C1.89331 8.74926 2.19997 8.09592 2.75997 7.60926C3.83997 6.66259 5.69995 6.66262 6.78662 7.60262C7.34662 8.09596 7.65995 8.74926 7.65995 9.44926C7.65995 9.8626 7.54663 10.2693 7.33329 10.6159C6.85329 11.4093 5.87328 11.9093 4.77995 11.9093ZM4.77995 7.87594C4.25995 7.87594 3.77996 8.04926 3.41996 8.36259C3.07996 8.65593 2.89331 9.0426 2.89331 9.44926C2.89331 9.6826 2.95328 9.89595 3.07328 10.096C3.37995 10.6026 4.03328 10.9159 4.77995 10.9159C5.52661 10.9159 6.17994 10.6026 6.47994 10.1026C6.59994 9.90929 6.65995 9.68927 6.65995 9.45594C6.65995 9.04927 6.4733 8.66259 6.1333 8.36259C5.77997 8.04926 5.29995 7.87594 4.77995 7.87594Z" fill="#FCFCFD"/>
<path d="M4.77995 13.7426C3.13328 13.7426 1.89331 12.6826 1.89331 11.2826V9.4493C1.89331 8.0293 3.18661 6.87598 4.77995 6.87598C5.53328 6.87598 6.25329 7.13599 6.79329 7.60266C7.35329 8.09599 7.66663 8.7493 7.66663 9.4493V11.2826C7.66663 12.6826 6.42661 13.7426 4.77995 13.7426ZM4.77995 7.87598C3.73995 7.87598 2.89331 8.58263 2.89331 9.4493V11.2826C2.89331 12.116 3.69995 12.7426 4.77995 12.7426C5.85995 12.7426 6.66663 12.116 6.66663 11.2826V9.4493C6.66663 9.04263 6.47997 8.65596 6.13997 8.35596C5.77997 8.04929 5.29995 7.87598 4.77995 7.87598Z" fill="#FCFCFD"/>
<path d="M12.6933 9.91007C11.6867 9.91007 10.8334 9.16341 10.7534 8.20341C10.7 7.65008 10.9 7.11009 11.3 6.71676C11.6334 6.37009 12.1067 6.17676 12.6067 6.17676H14C14.66 6.19676 15.1667 6.71673 15.1667 7.35673V8.7301C15.1667 9.3701 14.66 9.89007 14.02 9.91007H12.6933ZM13.98 7.17676H12.6133C12.38 7.17676 12.1667 7.26342 12.0134 7.42342C11.82 7.61009 11.7267 7.86341 11.7534 8.11674C11.7867 8.55674 12.2133 8.91007 12.6933 8.91007H14C14.0867 8.91007 14.1667 8.8301 14.1667 8.7301V7.35673C14.1667 7.25673 14.0867 7.18342 13.98 7.17676Z" fill="#FCFCFD"/>
<path d="M10.6669 14.2093H9.00024C8.72691 14.2093 8.50024 13.9826 8.50024 13.7093C8.50024 13.436 8.72691 13.2093 9.00024 13.2093H10.6669C12.3869 13.2093 13.5002 12.096 13.5002 10.376V9.9093H12.6936C11.6869 9.9093 10.8336 9.16264 10.7536 8.20264C10.7002 7.6493 10.9003 7.10932 11.3003 6.71598C11.6336 6.36932 12.1069 6.17598 12.6069 6.17598H13.4936V5.70931C13.4936 4.14931 12.5803 3.07596 11.1003 2.90263C10.9403 2.87596 10.8002 2.87598 10.6602 2.87598H4.66024C4.50024 2.87598 4.3469 2.8893 4.19356 2.9093C2.7269 3.09597 1.8269 4.16264 1.8269 5.70931V7.04264C1.8269 7.31598 1.60024 7.54264 1.3269 7.54264C1.05357 7.54264 0.826904 7.31598 0.826904 7.04264V5.70931C0.826904 3.65598 2.0936 2.16931 4.06026 1.92265C4.24026 1.89598 4.4469 1.87598 4.66024 1.87598H10.6602C10.8202 1.87598 11.0269 1.88264 11.2402 1.91597C13.2069 2.14264 14.4936 3.63598 14.4936 5.70931V6.67598C14.4936 6.94932 14.2669 7.17598 13.9936 7.17598H12.6069C12.3736 7.17598 12.1603 7.26265 12.0069 7.42265C11.8136 7.60931 11.7202 7.86263 11.7469 8.11597C11.7802 8.55597 12.2069 8.9093 12.6869 8.9093H14.0002C14.2736 8.9093 14.5002 9.13597 14.5002 9.4093V10.376C14.5002 12.6693 12.9602 14.2093 10.6669 14.2093Z" fill="#FCFCFD"/>
</svg>
